<?xml version="1.0" encoding="UTF-8"?>
<svg width="60px" height="71px" viewBox="0 0 60 71" version="1.1" xmlns="http://www.w3.org/2000/svg" xmlns:xlink="http://www.w3.org/1999/xlink">
    <!-- Generator: Sketch 61 (89581) - https://sketch.com -->
    <title>XMLID_78_</title>
    <desc>Created with Sketch.</desc>
    <g id="Page-1" stroke="none" stroke-width="1" fill="none" fill-rule="evenodd">
        <g id="Rap" transform="translate(-22.000000, -452.000000)" fill="#FFFFFF" fill-rule="nonzero">
            <g id="harp" transform="translate(22.000000, 452.000000)">
                <path d="M58.1300142,13.0378117 C56.2381057,10.7519832 53.2397321,9.68601258 50.3062002,10.2554923 C49.8500916,10.3440226 49.3675198,10.4751528 48.8084682,10.6270973 C45.5692936,11.507543 40.6734695,12.8379942 35.2850979,7.37201539 C29.6264142,1.63212011 19.6442588,1.91727628 13.7856465,2.70128228 L13.7856465,0 L9.62912841,0 L9.62912841,51.0500306 C7.39195181,51.8943981 5.79584886,54.0595035 5.79584886,56.5919123 L5.79584886,58.7427252 L0,58.7427252 L0,71 L39.8352383,71 L39.8352383,58.7427252 L28.1288207,58.7427252 L58.0648955,23.4820205 C60.6201842,20.4719925 60.6477558,16.0796162 58.1300142,13.0378117 L58.1300142,13.0378117 Z M41.3796619,23.8444672 L33.0545718,33.5945879 L33.0545718,21.3668695 C36.0922937,23.0998696 38.7508027,23.6694882 41.3796619,23.8444672 L41.3796619,23.8444672 Z M28.8979151,38.4626407 L23.2616765,45.063555 L23.2616765,14.7781663 C24.6715675,15.1472735 26.0070567,15.7969578 27.1345816,16.8562678 C27.7385236,17.4236662 28.3252854,17.9431916 28.8980536,18.423586 L28.8980536,38.4626407 L28.8979151,38.4626407 Z M19.1051584,49.9316079 L16.4420773,53.0505641 C15.7707996,52.1526344 14.850685,51.4520245 13.7857851,51.0500306 L13.7857851,15.1643413 C15.2106395,14.829647 17.1051804,14.4504101 19.105297,14.3778375 L19.105297,49.9316079 L19.1051584,49.9316079 Z M9.95250552,56.5917736 C9.95250552,55.6226589 10.7397501,54.8340737 11.707526,54.8340737 C12.6751634,54.8340737 13.462408,55.6226589 13.462408,56.5917736 L13.462408,58.7425865 L9.95250552,58.7425865 L9.95250552,56.5917736 Z M35.6787202,66.8371363 L4.15651811,66.8371363 L4.15651811,62.905589 L35.6787202,62.905589 L35.6787202,66.8371363 L35.6787202,66.8371363 Z M54.8981829,20.7853174 L22.6728365,58.7425865 L17.6189261,58.7425865 L17.6189261,58.0773609 L46.2116142,24.5905911 C46.9603417,23.7084803 47.1239699,22.5086042 46.6387657,21.4588688 C46.1524531,20.4067743 45.1309195,19.7537598 43.9741605,19.7537598 C43.9731906,19.7537598 43.9720822,19.7537598 43.9711124,19.7537598 L43.950884,19.7537598 C40.1913134,19.7505682 36.2951318,19.7540373 29.9783327,13.819875 C25.0615874,9.20090019 17.956851,10.0169602 13.7857851,10.8996261 L13.7857851,6.90702351 C18.371533,6.24637704 27.7048558,5.60765498 32.3274582,10.2968435 C36.465272,14.494259 40.5964353,15.5885371 43.9963286,15.5882596 C46.4244279,15.5881208 48.4802418,15.029742 49.8970603,14.6446771 C50.376861,14.5142407 50.7912659,14.4017046 51.0971856,14.3423144 C52.5388046,14.0621537 54.0079952,14.5804302 54.9300495,15.6945513 C56.1571922,17.1772246 56.1438913,19.3181855 54.8981829,20.7853174 Z" id="XMLID_78_"></path>
            </g>
        </g>
    </g>
</svg>