<?xml version="1.0" encoding="UTF-8"?>
<svg width="60px" height="58px" viewBox="0 0 60 58" version="1.1" xmlns="http://www.w3.org/2000/svg" xmlns:xlink="http://www.w3.org/1999/xlink">
    <!-- Generator: Sketch 61 (89581) - https://sketch.com -->
    <title>Path</title>
    <desc>Created with Sketch.</desc>
    <g id="Page-1" stroke="none" stroke-width="1" fill="none" fill-rule="evenodd">
        <g id="Rap" transform="translate(-22.000000, -374.000000)" fill="#FFFFFF" fill-rule="nonzero">
            <g id="home" transform="translate(22.000000, 374.000000)">
                <path d="M59.3188646,26.5168148 L34.8981731,1.8964853 C34.8668841,1.86479482 34.8344231,1.83404333 34.8013763,1.80423081 C32.134776,-0.593799128 28.1052857,-0.602367293 25.4284901,1.78439492 C25.3952089,1.81409006 25.3628651,1.84472419 25.3313417,1.87617992 L0.688111207,26.5096551 C-0.228060233,27.4256272 -0.22958367,28.9119105 0.684829959,29.8295258 C1.59936078,30.7471411 3.08330538,30.7485495 3.99935964,29.8328122 L5.85935875,27.9735203 L5.85935875,48.2418088 C5.85935875,53.419328 10.0649818,57.6315789 15.2343543,57.6315789 L23.6718503,57.6315789 C24.9663028,57.6315789 26.0155992,56.5806289 26.0155992,55.2841364 L26.0155992,36.1524796 L34.2187203,36.1524796 L34.2187203,55.2841364 C34.2187203,56.5806289 35.2680167,57.6315789 36.5624692,57.6315789 L44.7655903,57.6315789 C49.9349628,57.6315789 54.1405859,53.419328 54.1405859,48.2418088 C54.1405859,46.9453162 53.0912895,45.8943662 51.796837,45.8943662 C50.5023845,45.8943662 49.4530881,46.9453162 49.4530881,48.2418088 C49.4530881,50.8305684 47.3502766,52.9366939 44.7655903,52.9366939 L38.9062181,52.9366939 L38.9062181,33.8050371 C38.9062181,32.5085446 37.8569217,31.4575945 36.5624692,31.4575945 L23.6718503,31.4575945 C22.3773978,31.4575945 21.3281014,32.5085446 21.3281014,33.8050371 L21.3281014,52.9366939 L15.2343543,52.9366939 C12.649668,52.9366939 10.5468565,50.8305684 10.5468565,48.2418088 L10.5468565,23.3589178 C10.5468565,23.3354433 10.546505,23.3120863 10.5458018,23.2888466 L28.5873948,5.25450186 C29.4654804,4.50766302 30.7533704,4.51047995 31.6280575,5.26095733 L49.4530881,23.2318037 L49.4530881,36.504596 C49.4530881,37.8010885 50.5023845,38.8520386 51.796837,38.8520386 C53.0912895,38.8520386 54.1405859,37.8010885 54.1405859,36.504596 L54.1405859,27.9575577 L55.9935537,29.8257699 C56.4516394,30.2876292 57.0537485,30.5187349 57.6562092,30.5187349 C58.2535136,30.5187349 58.8509352,30.2913851 59.3080834,29.8365681 C60.2263642,28.9228261 60.2312861,27.4365428 59.3188646,26.5168148 Z" id="Path"></path>
            </g>
        </g>
    </g>
</svg>