<?xml version="1.0" encoding="UTF-8"?>
<svg width="220px" height="151px" viewBox="0 0 220 151" version="1.1" xmlns="http://www.w3.org/2000/svg" xmlns:xlink="http://www.w3.org/1999/xlink">
    <!-- Generator: Sketch 61 (89581) - https://sketch.com -->
    <title>headphones</title>
    <desc>Created with Sketch.</desc>
    <g id="Page-1" stroke="none" stroke-width="1" fill="none" fill-rule="evenodd">
        <g id="Rap" transform="translate(-35.000000, -97.000000)" fill="#FFFFFF">
            <g id="headphones" transform="translate(35.000000, 97.000000)">
                <text id="Maghrebfy" font-family="SnellRoundhand-Black, Snell Roundhand" font-size="22" font-weight="700" letter-spacing="2.29603183">
                    <tspan x="47" y="126">Maghrebfy</tspan>
                </text>
                <path d="M208.546875,89.2099848 L190.453125,88.3170732 C190.453125,69.2439407 183.539978,51.2193027 170.887848,37.0111851 L174.71521,33.2406629 C176.775146,31.2126716 176.775146,27.9224277 174.71521,25.894436 C157.766052,9.19563635 135.138336,0 111,0 C86.8616639,0 64.2339476,9.19563635 47.28479,25.894436 C45.2248535,27.9224277 45.2248535,31.2126716 47.28479,33.2406629 L51.1121522,37.0111851 C38.4600218,51.2193027 31.546875,69.2439407 31.546875,88.3170732 L11.2616765,88.3170732 C5.12306551,90.4627669 0.714801527,96.2369282 0.714801527,103.009527 L0.714801527,134.180259 C0.714801527,142.773857 7.8119695,149.765625 16.535114,149.765625 L37.628864,149.765625 C40.5416142,149.765625 42.9023015,147.439996 42.9023015,144.570503 L42.9023015,92.6192835 C42.9023015,89.7497905 44,88.3170732 41.3493302,88.3170732 C45.8409714,66.8799797 51.7424927,52.0571964 59.0538942,43.8487234 C64.4317015,46.6167492 71.2967834,46.2555261 76.2804567,42.5634717 C86.3370666,35.1103659 98.3423768,31.1707317 111,31.1707317 C123.657623,31.1707317 135.662933,35.1103659 145.719543,42.5634717 C150.70871,46.2595845 157.576538,46.6086319 162.946106,43.8473703 C173.913208,56.1614329 179.90625,71.7846799 179.90625,88.3170732 C177.90625,89.8674924 176.90625,91.5991998 176.90625,93.5121951 L176.90625,145.463415 C176.90625,148.332908 179.266937,150.658537 182.179687,150.658537 L203.273438,150.658537 C211.996582,150.658537 219.09375,143.666768 219.09375,135.073171 L219.09375,103.902439 C219.09375,97.1298398 214.685486,91.3556785 208.546875,89.2099848 Z M32.8536585,141.707317 L17.2134146,141.707317 C14.3392484,141.707317 12,139.368069 12,136.493902 L12,105.213415 C12,102.339248 14.3392484,100 17.2134146,100 L32.8536585,100 L32.8536585,141.707317 Z M152.276875,33.0043161 C140.314464,24.460587 126.041023,19.9449157 111,19.9449157 C95.9589766,19.9449157 81.6855359,24.460587 69.7231248,33.0043161 C67.6012293,34.5195893 64.3707571,34.3242813 62.522209,32.5678231 L58.3170732,28.5751568 C72.8459147,16.4831195 91.3576247,9.87804878 111,9.87804878 C130.642375,9.87804878 149.154085,16.4831195 163.682927,28.5751568 L159.477791,32.5678231 C157.629243,34.3242813 154.398771,34.5195893 152.276875,33.0043161 Z M207.853659,136.493902 C207.853659,139.368069 205.51441,141.707317 202.640244,141.707317 L187,141.707317 L187,100 L202.640244,100 C205.51441,100 207.853659,102.339248 207.853659,105.213415 L207.853659,136.493902 Z" id="Shape" fill-rule="nonzero"></path>
            </g>
        </g>
    </g>
</svg>