<?xml version="1.0" encoding="UTF-8"?>
<svg width="60px" height="68px" viewBox="0 0 60 68" version="1.1" xmlns="http://www.w3.org/2000/svg" xmlns:xlink="http://www.w3.org/1999/xlink">
    <!-- Generator: Sketch 61 (89581) - https://sketch.com -->
    <title>Group 5</title>
    <desc>Created with Sketch.</desc>
    <g id="Page-1" stroke="none" stroke-width="1" fill="none" fill-rule="evenodd">
        <g id="Rap" transform="translate(-22.000000, -543.000000)" fill="#FFFFFF" fill-rule="nonzero">
            <g id="rap" transform="translate(22.000000, 543.000000)">
                <g id="Group-5">
                    <path d="M60,24.1769768 L44,24.1769768 L44,10.0180843 C44,4.49411262 39.514,2.30926389e-14 34,2.30926389e-14 L10,2.30926389e-14 C4.486,2.30926389e-14 0,4.49411262 0,10.0180843 L0,28.1842105 L60,28.1842105 L60,24.1769768 Z M40,24.1769768 L4,24.1769768 L4,10.0180843 C4,6.7037013 6.6916,4.00723372 10,4.00723372 L34,4.00723372 C37.3084,4.00723372 40,6.7037013 40,10.0180843 L40,24.1769768 Z" id="Shape"></path>
                    <polygon id="Path" points="16.119403 16.1052632 28.2089552 16.1052632 28.2089552 20.1315789 16.119403 20.1315789"></polygon>
                    <path d="M21.4139126,67.8291524 L21.9882729,68 L22.5626333,67.8291524 C31.3753998,65.207771 38.0410448,58.9304088 41.4493603,51.2527039 C43.2085554,54.0946148 46.3711354,55.9944193 49.9733475,55.9944193 L55.9701493,55.9944193 L55.9701493,50.0484461 C55.9701493,46.8101369 54.3952559,43.9300396 51.9653518,42.1204817 C54.3952559,40.3109239 55.9701493,37.4308266 55.9701493,34.1925174 L55.9701493,32.2105263 L49.9733475,32.2105263 C46.7105544,32.2105263 43.8083689,33.7691641 41.9830757,36.1745085 L8.17124146e-14,36.1745085 L8.17124146e-14,39.265886 C8.17124146e-14,52.3281322 8.59355011,64.0156694 21.4139126,67.8291524 L21.4139126,67.8291524 Z M51.9722814,50.0484461 L51.9722814,52.0304372 L49.9733475,52.0304372 C46.6667111,52.0304372 43.9765458,49.3630736 43.9765458,46.0844639 L43.9765458,44.1024728 L45.9754797,44.1024728 C49.2821162,44.1024728 51.9722814,46.7698364 51.9722814,50.0484461 Z M49.9733475,36.1731872 L51.6297974,36.1731872 C50.8047708,38.4803569 48.5815565,40.1384907 45.9754797,40.1384907 L44.3190299,40.1384907 C45.1440565,37.8313209 47.3672708,36.1731872 49.9733475,36.1731872 Z M39.9636194,40.1384907 C39.5902186,50.917351 32.3320896,60.5116413 21.9882729,63.8542032 C11.6445896,60.5116413 4.38646055,50.917351 4.01292644,40.1384907 L39.9636194,40.1384907 Z" id="Shape"></path>
                </g>
            </g>
        </g>
    </g>
</svg>